<svg width="12" height="10" viewBox="0 0 12 10" fill="none" xmlns="http://www.w3.org/2000/svg">
<path d="M5.52056 9.41655C5.57407 9.49428 5.64568 9.55783 5.72921 9.60173C5.81274 9.64563 5.90569 9.66857 6.00005 9.66857C6.09442 9.66857 6.18737 9.64563 6.2709 9.60173C6.35443 9.55783 6.42604 9.49428 6.47955 9.41655L11.7296 1.83322C11.7903 1.74575 11.826 1.6433 11.8326 1.53701C11.8392 1.43071 11.8166 1.32462 11.7672 1.23028C11.7177 1.13594 11.6434 1.05695 11.5522 1.00189C11.4611 0.946825 11.3566 0.917802 11.2501 0.917969H0.750055C0.643797 0.918408 0.539669 0.947805 0.448868 1.003C0.358068 1.05819 0.284031 1.13709 0.23472 1.23122C0.185408 1.32534 0.162688 1.43112 0.169002 1.5372C0.175316 1.64327 0.210425 1.74561 0.270555 1.83322L5.52056 9.41655Z" fill="#0D3155"/>
</svg>
