<svg width="24" height="13" viewBox="0 0 24 13" fill="none" xmlns="http://www.w3.org/2000/svg">
<path opacity="0.3" fill-rule="evenodd" clip-rule="evenodd" d="M6.04019 0.671831C6.13955 0.713063 6.22981 0.773494 6.30578 0.849661C6.38195 0.925636 6.44238 1.01589 6.48361 1.11526C6.52485 1.21462 6.54607 1.32115 6.54607 1.42873C6.54607 1.53631 6.52485 1.64283 6.48361 1.7422C6.44238 1.84157 6.38195 1.93182 6.30578 2.0078L2.79413 5.51813H22.8804C23.0973 5.51813 23.3054 5.6043 23.4587 5.75768C23.6121 5.91107 23.6983 6.1191 23.6983 6.33602C23.6983 6.55294 23.6121 6.76097 23.4587 6.91436C23.3054 7.06774 23.0973 7.15391 22.8804 7.15391H2.794L6.30578 10.6644C6.45936 10.8179 6.54564 11.0262 6.54564 11.2434C6.54564 11.4606 6.45936 11.6689 6.30578 11.8225C6.15221 11.9761 5.94391 12.0624 5.72672 12.0624C5.50952 12.0624 5.30123 11.9761 5.14765 11.8225L0.240297 6.91515C0.164129 6.83917 0.103699 6.74892 0.0624676 6.64955C0.0212345 6.55018 1.14441e-05 6.44366 1.14441e-05 6.33608C1.14441e-05 6.2285 0.0212345 6.12197 0.0624676 6.02261C0.103699 5.92324 0.164129 5.83299 0.240297 5.75701L5.14765 0.849661C5.22362 0.773494 5.31388 0.713063 5.41325 0.671831C5.51261 0.630598 5.61913 0.609375 5.72672 0.609375C5.8343 0.609375 5.94082 0.630598 6.04019 0.671831Z" fill="black"/>
</svg>
