<svg width="40" height="19" viewBox="0 0 40 19" fill="none" xmlns="http://www.w3.org/2000/svg">
<path fill-rule="evenodd" clip-rule="evenodd" d="M29.6007 0.101822C29.4387 0.169043 29.2915 0.267564 29.1677 0.39174C29.0435 0.515603 28.945 0.662747 28.8778 0.824744C28.8105 0.98674 28.7759 1.16041 28.7759 1.3358C28.7759 1.51119 28.8105 1.68486 28.8778 1.84685C28.945 2.00885 29.0435 2.15599 29.1677 2.27986L34.8928 8.00283H2.14622C1.79258 8.00283 1.45342 8.14332 1.20335 8.39338C0.95329 8.64344 0.812805 8.9826 0.812805 9.33625C0.812805 9.68989 0.95329 10.029 1.20335 10.2791C1.45342 10.5292 1.79258 10.6697 2.14622 10.6697H34.8929L29.1677 16.3927C28.9173 16.6431 28.7766 16.9827 28.7766 17.3368C28.7766 17.6909 28.9173 18.0305 29.1677 18.2808C29.4181 18.5312 29.7577 18.6719 30.1117 18.6719C30.4658 18.6719 30.8054 18.5312 31.0558 18.2808L39.0563 10.2803C39.1805 10.1565 39.279 10.0093 39.3462 9.84734C39.4134 9.68534 39.448 9.51168 39.448 9.33629C39.448 9.1609 39.4134 8.98723 39.3462 8.82523C39.279 8.66324 39.1805 8.51609 39.0563 8.39223L31.0558 0.39174C30.9319 0.267564 30.7848 0.169043 30.6228 0.101822C30.4608 0.0346005 30.2871 0 30.1117 0C29.9364 0 29.7627 0.0346005 29.6007 0.101822Z" fill="black"/>
</svg>
