<svg width="55" height="41" viewBox="0 0 55 41" fill="none" xmlns="http://www.w3.org/2000/svg">
<path d="M54.5015 2.58404C52.1752 5.11065 50.3474 7.46499 49.0181 9.64707C47.6888 11.8291 47.0242 13.6092 47.0242 14.9874C47.0242 15.7913 47.3011 16.5378 47.855 17.2269C48.2981 17.916 49.0181 18.6625 50.0151 19.4664C51.566 20.7297 52.7845 22.0504 53.6707 23.4286C54.5569 24.8067 55 26.6443 55 28.9412C55 32.5014 53.9476 35.3726 51.8429 37.5546C49.7382 39.8515 47.0796 41 43.8671 41C40.433 41 37.6636 39.8515 35.5589 37.5546C33.3434 35.3726 32.2357 32.5014 32.2357 28.9412C32.2357 24.4622 34.0634 19.5238 37.719 14.1261C41.2639 8.84314 46.0272 4.13445 52.0091 0L54.5015 2.58404ZM22.2659 2.58404C19.9396 5.11065 18.1118 7.46499 16.7825 9.64707C15.4532 11.8291 14.7885 13.6092 14.7885 14.9874C14.7885 15.7913 15.0655 16.5378 15.6193 17.2269C16.0624 17.916 16.7825 18.6625 17.7795 19.4664C19.3303 20.7297 20.5488 22.0504 21.435 23.4286C22.3213 24.8067 22.7644 26.6443 22.7644 28.9412C22.7644 32.5014 21.712 35.3726 19.6073 37.5546C17.5025 39.8515 14.8439 41 11.6314 41C8.19738 41 5.428 39.8515 3.32327 37.5546C1.10776 35.3726 0 32.5014 0 28.9412C0 24.4622 1.82779 19.5238 5.48338 14.1261C9.02819 8.84314 13.7915 4.13445 19.7734 0L22.2659 2.58404Z" fill="#007CF8"/>
</svg>
